REM DIRINDEX 1\2,1\4,1\5,1\6,1\7,1\3\8,1\3\9,1\3\10
REM DIRNAME folder01,folder02,folder03,folder04,folder05,folder06,folder07,folder08,folder09,folder10
TITLE ""
FILE "DB4500_5th_3B_09.mp3" MP3
  TRACK 01 AUDIO
    TITLE "0:"
    INDEX 01 00:00:00
  TRACK 02 AUDIO
    TITLE "8:cjc113_2129"
    INDEX 01 00:00:03
  TRACK 03 AUDIO
    TITLE "0:"
    INDEX 01 00:01:09
  TRACK 04 AUDIO
    TITLE "9:cjc113_2130"
    INDEX 01 00:01:28
  TRACK 05 AUDIO
    TITLE "0:"
    INDEX 01 00:02:55
  TRACK 06 AUDIO
    TITLE "10:cjc113_2131"
    INDEX 01 00:02:73
  TRACK 07 AUDIO
    TITLE "0:"
    INDEX 01 00:06:37
  TRACK 08 AUDIO
    TITLE "8:cjc113_2132"
    INDEX 01 00:07:05
  TRACK 09 AUDIO
    TITLE "0:"
    INDEX 01 00:08:24
  TRACK 10 AUDIO
    TITLE "9:cjc113_2133"
    INDEX 01 00:08:42
  TRACK 11 AUDIO
    TITLE "0:"
    INDEX 01 00:09:67
  TRACK 12 AUDIO
    TITLE "10:cjc113_2134"
    INDEX 01 00:10:10
  TRACK 13 AUDIO
    TITLE "0:"
    INDEX 01 00:15:28
  TRACK 14 AUDIO
    TITLE "8:cjc113_2135"
    INDEX 01 00:15:70
  TRACK 15 AUDIO
    TITLE "0:"
    INDEX 01 00:18:48
  TRACK 16 AUDIO
    TITLE "9:cjc113_2136"
    INDEX 01 00:18:70
  TRACK 17 AUDIO
    TITLE "0:"
    INDEX 01 00:20:12
  TRACK 18 AUDIO
    TITLE "10:cjc113_2137"
    INDEX 01 00:20:30
  TRACK 19 AUDIO
    TITLE "0:"
    INDEX 01 00:24:12
  TRACK 20 AUDIO
    TITLE "8:cjc113_2138"
    INDEX 01 00:24:63
  TRACK 21 AUDIO
    TITLE "0:"
    INDEX 01 00:26:15
  TRACK 22 AUDIO
    TITLE "9:cjc113_2139"
    INDEX 01 00:26:34
  TRACK 23 AUDIO
    TITLE "0:"
    INDEX 01 00:28:33
  TRACK 24 AUDIO
    TITLE "10:cjc113_2140"
    INDEX 01 00:28:53
  TRACK 25 AUDIO
    TITLE "0:"
    INDEX 01 00:32:64
  TRACK 26 AUDIO
    TITLE "8:cjc113_2141"
    INDEX 01 00:33:30
  TRACK 27 AUDIO
    TITLE "0:"
    INDEX 01 00:34:45
  TRACK 28 AUDIO
    TITLE "9:cjc113_2142"
    INDEX 01 00:34:63
  TRACK 29 AUDIO
    TITLE "0:"
    INDEX 01 00:36:60
  TRACK 30 AUDIO
    TITLE "10:cjc113_2143"
    INDEX 01 00:37:08
  TRACK 31 AUDIO
    TITLE "0:"
    INDEX 01 00:41:16
  TRACK 32 AUDIO
    TITLE "8:cjc113_2144"
    INDEX 01 00:41:59
  TRACK 33 AUDIO
    TITLE "0:"
    INDEX 01 00:42:72
  TRACK 34 AUDIO
    TITLE "9:cjc113_2145"
    INDEX 01 00:43:17
  TRACK 35 AUDIO
    TITLE "0:"
    INDEX 01 00:44:30
  TRACK 36 AUDIO
    TITLE "10:cjc113_2146"
    INDEX 01 00:44:48
  TRACK 37 AUDIO
    TITLE "0:"
    INDEX 01 00:49:12
  TRACK 38 AUDIO
    TITLE "8:cjc113_2147"
    INDEX 01 00:49:59
  TRACK 39 AUDIO
    TITLE "0:"
    INDEX 01 00:51:03
  TRACK 40 AUDIO
    TITLE "9:cjc113_2148"
    INDEX 01 00:51:26
  TRACK 41 AUDIO
    TITLE "0:"
    INDEX 01 00:52:67
  TRACK 42 AUDIO
    TITLE "10:cjc113_2149"
    INDEX 01 00:53:13
  TRACK 43 AUDIO
    TITLE "0:"
    INDEX 01 00:55:24
  TRACK 44 AUDIO
    TITLE "8:cjc113_2150"
    INDEX 01 00:55:69
  TRACK 45 AUDIO
    TITLE "0:"
    INDEX 01 00:57:19
  TRACK 46 AUDIO
    TITLE "9:cjc113_2151"
    INDEX 01 00:57:41
  TRACK 47 AUDIO
    TITLE "0:"
    INDEX 01 00:59:06
  TRACK 48 AUDIO
    TITLE "10:cjc113_2152"
    INDEX 01 00:59:28
  TRACK 49 AUDIO
    TITLE "0:"
    INDEX 01 01:02:46
  TRACK 50 AUDIO
    TITLE "8:cjc113_2153"
    INDEX 01 01:03:18
  TRACK 51 AUDIO
    TITLE "0:"
    INDEX 01 01:04:43
  TRACK 52 AUDIO
    TITLE "9:cjc113_2154"
    INDEX 01 01:04:62
  TRACK 53 AUDIO
    TITLE "0:"
    INDEX 01 01:06:24
  TRACK 54 AUDIO
    TITLE "10:cjc113_2155"
    INDEX 01 01:06:49
  TRACK 55 AUDIO
    TITLE "0:"
    INDEX 01 01:11:21
  TRACK 56 AUDIO
    TITLE "8:cjc113_2156"
    INDEX 01 01:11:68
  TRACK 57 AUDIO
    TITLE "0:"
    INDEX 01 01:13:24
  TRACK 58 AUDIO
    TITLE "9:cjc113_2157"
    INDEX 01 01:13:47
  TRACK 59 AUDIO
    TITLE "0:"
    INDEX 01 01:15:03
  TRACK 60 AUDIO
    TITLE "10:cjc113_2158"
    INDEX 01 01:15:27
  TRACK 61 AUDIO
    TITLE "0:"
    INDEX 01 01:20:30
  TRACK 62 AUDIO
    TITLE "8:cjc113_2159"
    INDEX 01 01:21:04
  TRACK 63 AUDIO
    TITLE "0:"
    INDEX 01 01:22:19
  TRACK 64 AUDIO
    TITLE "9:cjc113_2160"
    INDEX 01 01:22:41
  TRACK 65 AUDIO
    TITLE "0:"
    INDEX 01 01:23:69
  TRACK 66 AUDIO
    TITLE "10:cjc113_2161"
    INDEX 01 01:24:18
  TRACK 67 AUDIO
    TITLE "0:"
    INDEX 01 01:27:42
  TRACK 68 AUDIO
    TITLE "8:cjc113_2162"
    INDEX 01 01:28:16
  TRACK 69 AUDIO
    TITLE "0:"
    INDEX 01 01:29:39
  TRACK 70 AUDIO
    TITLE "9:cjc113_2163"
    INDEX 01 01:29:60
  TRACK 71 AUDIO
    TITLE "0:"
    INDEX 01 01:31:34
  TRACK 72 AUDIO
    TITLE "10:cjc113_2164"
    INDEX 01 01:31:57
  TRACK 73 AUDIO
    TITLE "0:"
    INDEX 01 01:36:27
